<svg id="visual" viewBox="0 0 960 540" width="960" height="540" xmlns="http://www.w3.org/2000/svg" xmlns:xlink="http://www.w3.org/1999/xlink" version="1.1"><g stroke-width="1" stroke-linejoin="bevel"><path d="M503.3 297L422.7 287L431.7 382Z" fill="#eaeaea" stroke="#eaeaea"></path><path d="M431.7 382L525.3 410L503.3 297Z" fill="#a1a1a1" stroke="#a1a1a1"></path><path d="M525.3 410L559.3 380L503.3 297Z" fill="#f4f4f4" stroke="#f4f4f4"></path><path d="M624 285L506.3 199L503.3 297Z" fill="#c0c0c0" stroke="#c0c0c0"></path><path d="M503.3 297L506.3 199L422.7 287Z" fill="#f4f4f4" stroke="#f4f4f4"></path><path d="M353 441L408.7 467L431.7 382Z" fill="#ababab" stroke="#ababab"></path><path d="M431.7 382L408.7 467L525.3 410Z" fill="#dfdfdf" stroke="#dfdfdf"></path><path d="M429.7 184L343 237L422.7 287Z" fill="#ffffff" stroke="#ffffff"></path><path d="M289 390L353 441L431.7 382Z" fill="#f4f4f4" stroke="#f4f4f4"></path><path d="M506.3 199L429.7 184L422.7 287Z" fill="#ababab" stroke="#ababab"></path><path d="M289 390L431.7 382L422.7 287Z" fill="#f4f4f4" stroke="#f4f4f4"></path><path d="M559.3 380L624 285L503.3 297Z" fill="#979797" stroke="#979797"></path><path d="M343 237L289 390L422.7 287Z" fill="#dfdfdf" stroke="#dfdfdf"></path><path d="M353 540L408.7 467L353 441Z" fill="#d4d4d4" stroke="#d4d4d4"></path><path d="M353 540L438.7 540L408.7 467Z" fill="#b5b5b5" stroke="#b5b5b5"></path><path d="M408.7 467L525.3 540L525.3 410Z" fill="#ffffff" stroke="#ffffff"></path><path d="M672 411L674 393L559.3 380Z" fill="#d4d4d4" stroke="#d4d4d4"></path><path d="M429.7 184L348 150L343 237Z" fill="#d4d4d4" stroke="#d4d4d4"></path><path d="M343 237L205.3 304L289 390Z" fill="#eaeaea" stroke="#eaeaea"></path><path d="M424.7 121L348 150L429.7 184Z" fill="#d4d4d4" stroke="#d4d4d4"></path><path d="M497.3 120L424.7 121L429.7 184Z" fill="#ffffff" stroke="#ffffff"></path><path d="M497.3 120L429.7 184L506.3 199Z" fill="#a1a1a1" stroke="#a1a1a1"></path><path d="M668 153L497.3 120L506.3 199Z" fill="#ffffff" stroke="#ffffff"></path><path d="M438.7 540L525.3 540L408.7 467Z" fill="#cacaca" stroke="#cacaca"></path><path d="M559.3 380L674 393L624 285Z" fill="#a1a1a1" stroke="#a1a1a1"></path><path d="M672 411L559.3 380L621 540Z" fill="#b5b5b5" stroke="#b5b5b5"></path><path d="M621 540L559.3 380L525.3 410Z" fill="#979797" stroke="#979797"></path><path d="M204.3 540L353 540L353 441Z" fill="#ffffff" stroke="#ffffff"></path><path d="M207.3 150L205.3 304L343 237Z" fill="#eaeaea" stroke="#eaeaea"></path><path d="M289 390L204.3 540L353 441Z" fill="#ababab" stroke="#ababab"></path><path d="M525.3 540L621 540L525.3 410Z" fill="#cacaca" stroke="#cacaca"></path><path d="M731.7 352L722.7 294L674 393Z" fill="#c0c0c0" stroke="#c0c0c0"></path><path d="M674 393L722.7 294L624 285Z" fill="#d4d4d4" stroke="#d4d4d4"></path><path d="M624 285L668 153L506.3 199Z" fill="#eaeaea" stroke="#eaeaea"></path><path d="M731.7 352L674 393L729.7 459Z" fill="#cacaca" stroke="#cacaca"></path><path d="M205.3 304L197.3 394L289 390Z" fill="#c0c0c0" stroke="#c0c0c0"></path><path d="M729.7 459L674 393L672 411Z" fill="#979797" stroke="#979797"></path><path d="M722.7 294L668 153L624 285Z" fill="#dfdfdf" stroke="#dfdfdf"></path><path d="M143.7 424L186.3 415L197.3 394Z" fill="#a1a1a1" stroke="#a1a1a1"></path><path d="M197.3 394L186.3 415L289 390Z" fill="#ababab" stroke="#ababab"></path><path d="M621 540L729.7 459L672 411Z" fill="#ababab" stroke="#ababab"></path><path d="M424.7 121L301 76L348 150Z" fill="#ffffff" stroke="#ffffff"></path><path d="M348 150L207.3 150L343 237Z" fill="#ffffff" stroke="#ffffff"></path><path d="M388.7 0L301 76L424.7 121Z" fill="#d4d4d4" stroke="#d4d4d4"></path><path d="M388.7 0L424.7 121L497.3 120Z" fill="#cacaca" stroke="#cacaca"></path><path d="M301 76L207.3 150L348 150Z" fill="#b5b5b5" stroke="#b5b5b5"></path><path d="M99.7 395L143.7 424L197.3 394Z" fill="#d4d4d4" stroke="#d4d4d4"></path><path d="M784.7 125L652 78L668 153Z" fill="#d4d4d4" stroke="#d4d4d4"></path><path d="M668 153L652 78L497.3 120Z" fill="#ababab" stroke="#ababab"></path><path d="M98.7 298L197.3 394L205.3 304Z" fill="#cacaca" stroke="#cacaca"></path><path d="M186.3 415L204.3 540L289 390Z" fill="#dfdfdf" stroke="#dfdfdf"></path><path d="M143.7 424L204.3 540L186.3 415Z" fill="#b5b5b5" stroke="#b5b5b5"></path><path d="M722.7 294L748.7 171L668 153Z" fill="#a1a1a1" stroke="#a1a1a1"></path><path d="M817.3 247L748.7 171L722.7 294Z" fill="#eaeaea" stroke="#eaeaea"></path><path d="M817.3 247L722.7 294L731.7 352Z" fill="#ababab" stroke="#ababab"></path><path d="M561.3 0L388.7 0L497.3 120Z" fill="#b5b5b5" stroke="#b5b5b5"></path><path d="M301 76L196.3 85L207.3 150Z" fill="#d4d4d4" stroke="#d4d4d4"></path><path d="M621 540L727.7 540L729.7 459Z" fill="#b5b5b5" stroke="#b5b5b5"></path><path d="M851.3 351L817.3 247L731.7 352Z" fill="#f4f4f4" stroke="#f4f4f4"></path><path d="M652 78L561.3 0L497.3 120Z" fill="#ffffff" stroke="#ffffff"></path><path d="M388.7 0L326 0L301 76Z" fill="#cacaca" stroke="#cacaca"></path><path d="M192.3 0L196.3 85L301 76Z" fill="#b5b5b5" stroke="#b5b5b5"></path><path d="M207.3 150L98.7 298L205.3 304Z" fill="#d4d4d4" stroke="#d4d4d4"></path><path d="M96.7 141L98.7 298L207.3 150Z" fill="#cacaca" stroke="#cacaca"></path><path d="M98.7 298L99.7 395L197.3 394Z" fill="#ababab" stroke="#ababab"></path><path d="M143.7 424L106.7 540L204.3 540Z" fill="#f4f4f4" stroke="#f4f4f4"></path><path d="M851.3 351L731.7 352L729.7 459Z" fill="#f4f4f4" stroke="#f4f4f4"></path><path d="M748.7 171L784.7 125L668 153Z" fill="#a1a1a1" stroke="#a1a1a1"></path><path d="M652 78L658 0L561.3 0Z" fill="#b5b5b5" stroke="#b5b5b5"></path><path d="M817.3 247L784.7 125L748.7 171Z" fill="#cacaca" stroke="#cacaca"></path><path d="M726.7 0L658 0L652 78Z" fill="#ababab" stroke="#ababab"></path><path d="M849.3 478L851.3 351L729.7 459Z" fill="#cacaca" stroke="#cacaca"></path><path d="M817.3 247L877.3 188L784.7 125Z" fill="#d4d4d4" stroke="#d4d4d4"></path><path d="M99.7 395L106.7 540L143.7 424Z" fill="#ababab" stroke="#ababab"></path><path d="M196.3 85L96.7 141L207.3 150Z" fill="#ababab" stroke="#ababab"></path><path d="M98.7 298L0 336L99.7 395Z" fill="#cacaca" stroke="#cacaca"></path><path d="M97.7 91L96.7 141L196.3 85Z" fill="#cacaca" stroke="#cacaca"></path><path d="M837.3 540L849.3 478L729.7 459Z" fill="#dfdfdf" stroke="#dfdfdf"></path><path d="M326 0L192.3 0L301 76Z" fill="#b5b5b5" stroke="#b5b5b5"></path><path d="M784.7 125L726.7 0L652 78Z" fill="#d4d4d4" stroke="#d4d4d4"></path><path d="M727.7 540L837.3 540L729.7 459Z" fill="#ababab" stroke="#ababab"></path><path d="M192.3 0L97.7 91L196.3 85Z" fill="#f4f4f4" stroke="#f4f4f4"></path><path d="M960 292L877.3 188L817.3 247Z" fill="#dfdfdf" stroke="#dfdfdf"></path><path d="M784.7 125L862.3 74L726.7 0Z" fill="#dfdfdf" stroke="#dfdfdf"></path><path d="M960 292L817.3 247L851.3 351Z" fill="#979797" stroke="#979797"></path><path d="M0 237L0 336L98.7 298Z" fill="#f4f4f4" stroke="#f4f4f4"></path><path d="M99.7 395L0 413L106.7 540Z" fill="#ababab" stroke="#ababab"></path><path d="M0 237L98.7 298L96.7 141Z" fill="#ababab" stroke="#ababab"></path><path d="M0 336L0 413L99.7 395Z" fill="#f4f4f4" stroke="#f4f4f4"></path><path d="M0 191L0 237L96.7 141Z" fill="#c0c0c0" stroke="#c0c0c0"></path><path d="M0 72L0 191L96.7 141Z" fill="#a1a1a1" stroke="#a1a1a1"></path><path d="M877.3 188L862.3 74L784.7 125Z" fill="#dfdfdf" stroke="#dfdfdf"></path><path d="M960 473L851.3 351L849.3 478Z" fill="#c0c0c0" stroke="#c0c0c0"></path><path d="M960 473L960 322L851.3 351Z" fill="#eaeaea" stroke="#eaeaea"></path><path d="M877.3 188L960 91L862.3 74Z" fill="#ababab" stroke="#ababab"></path><path d="M192.3 0L80.7 0L97.7 91Z" fill="#ababab" stroke="#ababab"></path><path d="M97.7 91L0 72L96.7 141Z" fill="#eaeaea" stroke="#eaeaea"></path><path d="M0 413L0 540L106.7 540Z" fill="#a1a1a1" stroke="#a1a1a1"></path><path d="M960 322L960 292L851.3 351Z" fill="#f4f4f4" stroke="#f4f4f4"></path><path d="M960 292L960 209L877.3 188Z" fill="#cacaca" stroke="#cacaca"></path><path d="M960 540L960 473L849.3 478Z" fill="#a1a1a1" stroke="#a1a1a1"></path><path d="M80.7 0L0 72L97.7 91Z" fill="#d4d4d4" stroke="#d4d4d4"></path><path d="M960 0L867.3 0L862.3 74Z" fill="#c0c0c0" stroke="#c0c0c0"></path><path d="M862.3 74L867.3 0L726.7 0Z" fill="#d4d4d4" stroke="#d4d4d4"></path><path d="M837.3 540L960 540L849.3 478Z" fill="#ababab" stroke="#ababab"></path><path d="M960 209L960 91L877.3 188Z" fill="#ffffff" stroke="#ffffff"></path><path d="M80.7 0L0 0L0 72Z" fill="#979797" stroke="#979797"></path><path d="M960 91L960 0L862.3 74Z" fill="#dfdfdf" stroke="#dfdfdf"></path></g></svg>