<svg id="visual" viewBox="0 0 960 540" width="960" height="540" xmlns="http://www.w3.org/2000/svg" xmlns:xlink="http://www.w3.org/1999/xlink" version="1.1"><g stroke-width="1" stroke-linejoin="bevel"><path d="M506.3 297L496.3 350L612 372Z" fill="#005162" stroke="#33312a"></path><path d="M496.3 350L563.3 448L612 372Z" fill="#053a51" stroke="#33312a"></path><path d="M612 372L629 239L506.3 297Z" fill="#005162" stroke="#33312a"></path><path d="M461.7 235L449.7 391L496.3 350Z" fill="#00455a" stroke="#33312a"></path><path d="M496.3 350L449.7 391L563.3 448Z" fill="#121b30" stroke="#33312a"></path><path d="M516.3 164L461.7 235L506.3 297Z" fill="#005162" stroke="#33312a"></path><path d="M506.3 297L461.7 235L496.3 350Z" fill="#0d2f47" stroke="#33312a"></path><path d="M563.3 448L645 445L612 372Z" fill="#0e0119" stroke="#33312a"></path><path d="M612 372L717.7 336L629 239Z" fill="#121b30" stroke="#33312a"></path><path d="M645 445L717.7 336L612 372Z" fill="#11253c" stroke="#33312a"></path><path d="M516.3 164L456.7 202L461.7 235Z" fill="#11253c" stroke="#33312a"></path><path d="M345 416L397.7 440L449.7 391Z" fill="#0e0119" stroke="#33312a"></path><path d="M629 239L516.3 164L506.3 297Z" fill="#0e0119" stroke="#33312a"></path><path d="M345 416L449.7 391L313 342Z" fill="#121124" stroke="#33312a"></path><path d="M449.7 391L517.3 540L563.3 448Z" fill="#00455a" stroke="#33312a"></path><path d="M749.7 272L652 162L629 239Z" fill="#053a51" stroke="#33312a"></path><path d="M629 239L601 127L516.3 164Z" fill="#121b30" stroke="#33312a"></path><path d="M717.7 336L749.7 272L629 239Z" fill="#005c68" stroke="#33312a"></path><path d="M397.7 440L517.3 540L449.7 391Z" fill="#005162" stroke="#33312a"></path><path d="M563.3 448L644 540L645 445Z" fill="#00455a" stroke="#33312a"></path><path d="M652 162L601 127L629 239Z" fill="#11253c" stroke="#33312a"></path><path d="M517.3 540L644 540L563.3 448Z" fill="#0e0119" stroke="#33312a"></path><path d="M645 445L767.7 460L717.7 336Z" fill="#0e0119" stroke="#33312a"></path><path d="M884.3 350L882.3 307L749.7 272Z" fill="#121b30" stroke="#33312a"></path><path d="M313 342L449.7 391L461.7 235Z" fill="#187370" stroke="#33312a"></path><path d="M397.7 440L402.7 540L517.3 540Z" fill="#0e0119" stroke="#33312a"></path><path d="M644 540L767.7 460L645 445Z" fill="#11253c" stroke="#33312a"></path><path d="M328 249L313 342L461.7 235Z" fill="#121b30" stroke="#33312a"></path><path d="M291 216L328 249L456.7 202Z" fill="#121b30" stroke="#33312a"></path><path d="M456.7 202L328 249L461.7 235Z" fill="#053a51" stroke="#33312a"></path><path d="M328 540L402.7 540L397.7 440Z" fill="#00455a" stroke="#33312a"></path><path d="M749.7 272L781.7 175L652 162Z" fill="#00455a" stroke="#33312a"></path><path d="M652 162L740.7 116L601 127Z" fill="#121124" stroke="#33312a"></path><path d="M882.3 307L781.7 175L749.7 272Z" fill="#121124" stroke="#33312a"></path><path d="M601 127L517.3 63L516.3 164Z" fill="#11253c" stroke="#33312a"></path><path d="M516.3 164L406.7 51L456.7 202Z" fill="#00455a" stroke="#33312a"></path><path d="M510.3 0L517.3 63L609 0Z" fill="#0d2f47" stroke="#33312a"></path><path d="M781.7 175L740.7 116L652 162Z" fill="#121124" stroke="#33312a"></path><path d="M337 71L291 216L456.7 202Z" fill="#0e0119" stroke="#33312a"></path><path d="M328 249L221.3 283L313 342Z" fill="#005c68" stroke="#33312a"></path><path d="M644 540L772.7 540L767.7 460Z" fill="#187370" stroke="#33312a"></path><path d="M884.3 350L749.7 272L717.7 336Z" fill="#0e0119" stroke="#33312a"></path><path d="M772.7 540L824.3 481L767.7 460Z" fill="#121124" stroke="#33312a"></path><path d="M345 416L328 540L397.7 440Z" fill="#005162" stroke="#33312a"></path><path d="M178.3 474L328 540L345 416Z" fill="#187370" stroke="#33312a"></path><path d="M199.3 354L345 416L313 342Z" fill="#01686d" stroke="#33312a"></path><path d="M517.3 63L406.7 51L516.3 164Z" fill="#0d2f47" stroke="#33312a"></path><path d="M884.3 350L717.7 336L767.7 460Z" fill="#121b30" stroke="#33312a"></path><path d="M781.7 175L855.3 91L740.7 116Z" fill="#005c68" stroke="#33312a"></path><path d="M824.3 481L884.3 350L767.7 460Z" fill="#01686d" stroke="#33312a"></path><path d="M337 71L246.3 217L291 216Z" fill="#187370" stroke="#33312a"></path><path d="M291 216L221.3 283L328 249Z" fill="#0d2f47" stroke="#33312a"></path><path d="M517.3 63L444.7 0L406.7 51Z" fill="#005162" stroke="#33312a"></path><path d="M609 0L517.3 63L601 127Z" fill="#005c68" stroke="#33312a"></path><path d="M740.7 116L609 0L601 127Z" fill="#005162" stroke="#33312a"></path><path d="M246.3 217L221.3 283L291 216Z" fill="#005162" stroke="#33312a"></path><path d="M293 0L337 71L406.7 51Z" fill="#11253c" stroke="#33312a"></path><path d="M406.7 51L337 71L456.7 202Z" fill="#11253c" stroke="#33312a"></path><path d="M510.3 0L444.7 0L517.3 63Z" fill="#11253c" stroke="#33312a"></path><path d="M221.3 283L199.3 354L313 342Z" fill="#00455a" stroke="#33312a"></path><path d="M882.3 307L885.3 177L781.7 175Z" fill="#0e0119" stroke="#33312a"></path><path d="M740.7 116L729.7 0L609 0Z" fill="#00455a" stroke="#33312a"></path><path d="M960 234L885.3 177L882.3 307Z" fill="#11253c" stroke="#33312a"></path><path d="M772.7 540L869.3 540L824.3 481Z" fill="#00455a" stroke="#33312a"></path><path d="M960 489L960 360L884.3 350Z" fill="#053a51" stroke="#33312a"></path><path d="M855.3 91L729.7 0L740.7 116Z" fill="#00455a" stroke="#33312a"></path><path d="M885.3 177L855.3 91L781.7 175Z" fill="#0e0119" stroke="#33312a"></path><path d="M960 489L884.3 350L824.3 481Z" fill="#0e0119" stroke="#33312a"></path><path d="M884.3 350L960 360L882.3 307Z" fill="#0e0119" stroke="#33312a"></path><path d="M885.3 177L960 156L855.3 91Z" fill="#0e0119" stroke="#33312a"></path><path d="M199.3 354L178.3 474L345 416Z" fill="#01686d" stroke="#33312a"></path><path d="M178.3 474L207.3 540L328 540Z" fill="#00455a" stroke="#33312a"></path><path d="M960 360L960 234L882.3 307Z" fill="#005c68" stroke="#33312a"></path><path d="M444.7 0L293 0L406.7 51Z" fill="#005162" stroke="#33312a"></path><path d="M337 71L186.3 58L246.3 217Z" fill="#0d2f47" stroke="#33312a"></path><path d="M82.7 364L199.3 354L79.7 243Z" fill="#00455a" stroke="#33312a"></path><path d="M82.7 364L115.7 439L199.3 354Z" fill="#0d2f47" stroke="#33312a"></path><path d="M869.3 540L960 489L824.3 481Z" fill="#187370" stroke="#33312a"></path><path d="M960 234L960 156L885.3 177Z" fill="#0d2f47" stroke="#33312a"></path><path d="M855.3 91L884.3 0L729.7 0Z" fill="#0d2f47" stroke="#33312a"></path><path d="M869.3 540L960 540L960 489Z" fill="#121124" stroke="#33312a"></path><path d="M199.3 354L115.7 439L178.3 474Z" fill="#00455a" stroke="#33312a"></path><path d="M178.3 474L99.7 540L207.3 540Z" fill="#005c68" stroke="#33312a"></path><path d="M79.7 243L221.3 283L83.7 204Z" fill="#0e0119" stroke="#33312a"></path><path d="M293 0L186.3 58L337 71Z" fill="#053a51" stroke="#33312a"></path><path d="M960 55L884.3 0L855.3 91Z" fill="#11253c" stroke="#33312a"></path><path d="M79.7 243L199.3 354L221.3 283Z" fill="#11253c" stroke="#33312a"></path><path d="M83.7 204L221.3 283L246.3 217Z" fill="#121b30" stroke="#33312a"></path><path d="M960 156L960 55L855.3 91Z" fill="#187370" stroke="#33312a"></path><path d="M100.7 118L83.7 204L246.3 217Z" fill="#01686d" stroke="#33312a"></path><path d="M293 0L190.3 0L186.3 58Z" fill="#0d2f47" stroke="#33312a"></path><path d="M186.3 58L100.7 118L246.3 217Z" fill="#01686d" stroke="#33312a"></path><path d="M0 480L99.7 540L115.7 439Z" fill="#0e0119" stroke="#33312a"></path><path d="M115.7 439L99.7 540L178.3 474Z" fill="#01686d" stroke="#33312a"></path><path d="M69.7 0L100.7 118L186.3 58Z" fill="#121b30" stroke="#33312a"></path><path d="M960 55L960 0L884.3 0Z" fill="#053a51" stroke="#33312a"></path><path d="M0 255L0 394L82.7 364Z" fill="#01686d" stroke="#33312a"></path><path d="M82.7 364L0 394L115.7 439Z" fill="#01686d" stroke="#33312a"></path><path d="M0 255L82.7 364L79.7 243Z" fill="#11253c" stroke="#33312a"></path><path d="M0 255L79.7 243L83.7 204Z" fill="#0d2f47" stroke="#33312a"></path><path d="M0 176L0 255L83.7 204Z" fill="#187370" stroke="#33312a"></path><path d="M0 394L0 480L115.7 439Z" fill="#005162" stroke="#33312a"></path><path d="M0 99L0 176L100.7 118Z" fill="#11253c" stroke="#33312a"></path><path d="M100.7 118L0 176L83.7 204Z" fill="#005162" stroke="#33312a"></path><path d="M190.3 0L69.7 0L186.3 58Z" fill="#00455a" stroke="#33312a"></path><path d="M0 480L0 540L99.7 540Z" fill="#00455a" stroke="#33312a"></path><path d="M69.7 0L0 99L100.7 118Z" fill="#121124" stroke="#33312a"></path><path d="M69.7 0L0 0L0 99Z" fill="#01686d" stroke="#33312a"></path></g></svg>